<svg xmlns="http://www.w3.org/2000/svg" xmlns:xlink="http://www.w3.org/1999/xlink" viewBox="0 0 444.6 270.3"><g id="copy"><g><g><path fill="none" stroke="#FFFFFF" stroke-width=".5" stroke-miterlimit="10" d="M231,214.3c0.1-0.1,0.2-0.2,0.3-0.3 c-6-5.2-11.7-10.7-18.1-15.5c0,0,0,0,0,0c1.8,11.3,3.5,22.6,5.3,33.9C222.3,226.2,226.4,220.1,231,214.3z"/><path fill="none" stroke="#FFFFFF" stroke-width=".5" stroke-miterlimit="10" d="M265,162.9c4.4,8.4,9.8,16.1,15.1,24 c10.9-4.1,22.4-7.1,32.8-12.5C297,170.2,280.9,167,265,162.9z"/><path fill="none" stroke="#FFFFFF" stroke-width=".5" stroke-miterlimit="10" d="M271.8,180.1c-3.4-5.2-6.7-10.5-9.6-16 c-4,7.8-6.1,16.4-9.4,24.5C259.1,185.7,265.6,183.2,271.8,180.1z"/><path fill="none" stroke="#FFFFFF" stroke-width=".5" stroke-miterlimit="10" d="M294.4,185.1c4.2,8.8,9.1,17.3,11.4,26.8 c0.5,1.9-2.4,2.9-2.9,1c-2.4-9.5-7.3-18.1-11.5-26.8c-3.6,1.2-7.1,2.4-10.7,3.8c-0.6,0.7-1.8,0.9-2.4,0c-1.6-2.4-3.3-4.8-4.9-7.3 c-0.1,0.1-0.2,0.2-0.4,0.3c-7.3,3.7-14.9,6.5-22.3,10c-0.8,1.7-1.7,3.3-2.8,4.9c-1.1,1.6-3.8,0.3-2.8-1.3c1-1.5,1.8-3.1,2.6-4.6 c0-0.4,0.2-0.9,0.6-1.2c0.7-1.4,1.3-2.8,1.8-4.2c-12,3.8-24.4,5.8-36.7,7.7c-0.6,0.1-1-0.1-1.3-0.5c0.1,0.2,0.2,0.4,0.2,0.6 c0.1,0.8,0.2,1.6,0.4,2.4c0.5-0.7,1.5-1.1,2.3-0.5c8.7,6.5,16.2,14.4,24.8,21c4.9-4.1,10.1-7.9,14.6-12.4 c-3.2-0.8-6.5-1.6-9.7-2.4c-1.9-0.5-1.3-3.5,0.6-3c20.5,5.2,41.2,9.8,60.8,17.8c-0.1-0.2-0.1-0.4,0-0.7 c2.6-13.9,6.6-27.5,10.8-40.9C309.9,179.6,302.2,182.4,294.4,185.1z"/><path fill="none" stroke="#FFFFFF" stroke-width=".5" stroke-miterlimit="10" d="M271.9,209.2c-4.7-1.2-9.4-2.4-14-3.6 c0,0.3-0.2,0.5-0.4,0.7c-4.8,4.8-10.2,8.8-15.4,13.1c0,1.1-1.4,2.1-2.6,1.3c-2-1.5-4-3.1-5.9-4.7c-0.1,0.1-0.1,0.2-0.2,0.3 c-5,6.2-9.4,13-13.7,19.8c17-2.6,34.1-5,51.2-7.6c-6.1-5.1-12.8-9.2-19.2-13.8c-1.6-1.2,0.4-3.5,2-2.3c6.4,4.6,13,8.7,19.1,13.7 c1.9-4.8-0.5-10.7-1.3-15.6C271.3,209.9,271.5,209.5,271.9,209.2z"/><path fill="#95C4D3" stroke="#FFFFFF" stroke-width=".5" stroke-miterlimit="10" d="M319.9,174.6c0.1-0.7-0.2-1.6-1.1-1.8 c-0.4-0.1-0.9-0.2-1.3-0.3c-0.1,0-0.2-0.1-0.3-0.1c-17.3-4.7-35-8.1-52.3-12.6c-0.7-0.2-1.3,0.1-1.5,0.6c-0.8-0.5-2-0.1-2.3,0.6 c-0.4,0.1-0.8,0.3-1.1,0.8c-3.8,7-5.9,14.7-8.6,22.1c-0.4-0.4-0.9-0.6-1.6-0.4c-11.9,3.8-24.1,5.8-36.4,7.7 c-1.3,0.2-1.7,1.7-1.1,2.5c-0.8-1.2-3.1-0.8-2.8,0.9c2.2,13.8,4.3,27.7,6.5,41.5c0.1,0.5,0.3,0.8,0.6,1c0.1,0.2,0.3,0.3,0.5,0.4 c-0.3,1,0.3,2.1,1.5,1.9c18.5-2.9,37-5.4,55.4-8.3c1.1-0.2,1.5-1.3,1.3-2.1c0-0.3,0-0.6-0.2-0.9c0.2-0.1,0.4-0.3,0.5-0.6 c2.2-5.6-0.1-11.6-1-17.2c0-0.1-0.1-0.3-0.1-0.4c10.8,2.9,21.4,6.2,31.8,10.5c1.5,0.6,2.6-1.1,2.1-2.2c0.5-0.1,1-0.5,1.2-1.2 c2.6-14,6.6-27.6,10.9-41.1C320.4,175.3,320.2,174.9,319.9,174.6z M280.1,186.9c-5.3-7.8-10.7-15.6-15.1-24 c15.9,4.1,32,7.3,47.9,11.4C302.4,179.7,291,182.7,280.1,186.9z M262.2,164.1c2.9,5.5,6.2,10.8,9.6,16 c-6.2,3.1-12.7,5.6-19.1,8.5C256.1,180.5,258.2,171.9,262.2,164.1z M213.1,198.5C213.2,198.5,213.2,198.5,213.1,198.5 c6.4,4.8,12.2,10.3,18.2,15.5c-0.1,0.1-0.2,0.2-0.3,0.3c-4.6,5.7-8.7,11.9-12.6,18.1C216.7,221.1,214.9,209.8,213.1,198.5z M271.4,210.5c0.8,4.9,3.2,10.7,1.3,15.6c-6-5-12.7-9.1-19.1-13.7c-1.6-1.2-3.6,1.2-2,2.3c6.4,4.6,13.1,8.7,19.2,13.8 c-17,2.6-34.1,5-51.2,7.6c4.2-6.8,8.7-13.6,13.7-19.8c0.1-0.1,0.1-0.2,0.2-0.3c1.9,1.6,3.9,3.2,5.9,4.7c1.2,0.9,2.6-0.2,2.6-1.3 c5.2-4.3,10.6-8.4,15.4-13.1c0.2-0.2,0.4-0.5,0.4-0.7c4.7,1.2,9.4,2.3,14,3.6C271.5,209.5,271.3,209.9,271.4,210.5z M306.3,216.4 c0,0.3,0,0.5,0,0.7c-19.6-8-40.4-12.5-60.8-17.8c-1.9-0.5-2.5,2.5-0.6,3c3.2,0.8,6.5,1.6,9.7,2.4c-4.6,4.5-9.7,8.3-14.6,12.4 c-8.6-6.7-16.1-14.5-24.8-21c-0.9-0.6-1.9-0.2-2.3,0.5c-0.1-0.8-0.2-1.6-0.4-2.4c0-0.2-0.1-0.4-0.2-0.6c0.3,0.4,0.7,0.6,1.3,0.5 c12.4-1.9,24.8-3.9,36.7-7.7c-0.6,1.4-1.2,2.8-1.8,4.2c-0.4,0.3-0.5,0.7-0.6,1.2c-0.8,1.6-1.6,3.1-2.6,4.6 c-1.1,1.7,1.7,3,2.8,1.3c1-1.6,1.9-3.3,2.8-4.9c7.3-3.6,15-6.4,22.3-10c0.2-0.1,0.3-0.2,0.4-0.3c1.6,2.4,3.3,4.8,4.9,7.3 c0.7,1,1.8,0.7,2.4,0c3.5-1.3,7.1-2.6,10.7-3.8c4.2,8.8,9.1,17.3,11.5,26.8c0.5,1.9,3.4,0.9,2.9-1c-2.4-9.5-7.2-18-11.4-26.8 c7.8-2.7,15.6-5.5,22.8-9.6C312.8,189,308.9,202.5,306.3,216.4z"/></g><path fill-rule="evenodd" clip-rule="evenodd" fill="none" stroke="#95C4D3" stroke-width="3" stroke-linecap="round" stroke-linejoin="round" stroke-miterlimit="10" d="M360.7,178.5c29.7-0.1,56.7-0.1,82.3-0.1"/><path fill-rule="evenodd" clip-rule="evenodd" fill="none" stroke="#95C4D3" stroke-width="3" stroke-linecap="round" stroke-linejoin="round" stroke-miterlimit="10" d="M319.1,178.7c6.6,0,13.1,0,19.7-0.1"/><path fill-rule="evenodd" clip-rule="evenodd" fill="none" stroke="#95C4D3" stroke-width="3" stroke-linecap="round" stroke-linejoin="round" stroke-miterlimit="10" d="M112.1,179.2c44.5,0.1,92-0.1,141.1-0.3"/><g><g><path fill="#95C4D3" d="M349.1,220.5c-10.1,1.4-11.1,12-6.6,19.5c4.3,7.2,15.5,9.4,22.1,4.2c5.4-4.2,5.8-12.4,3.1-18.1 C364.2,218.5,356,217.3,349.1,220.5c-1.8,0.8-0.8,3.6,1,2.8c5.2-2.4,10.7-2.3,14.1,2.7c2.7,4,2.8,9.9,0.2,14 c-3.6,5.6-12.3,4.9-17,1.3c-5.8-4.5-7.2-16.5,1.9-17.7C351.3,223.3,351,220.3,349.1,220.5L349.1,220.5z"/></g><g><path fill="#95C4D3" d="M352.4,246.8c0.4,7.4-1.4,14.6-2.2,21.9c-0.2,1.9,2.7,2.4,3,0.5c0.8-7.5,2.6-15,2.2-22.6 C355.3,244.5,352.3,244.8,352.4,246.8L352.4,246.8z"/></g><g><path fill="#95C4D3" d="M382.9,195c-10-1.2-15.9,8.1-15.5,17.2c0.5,10.8,12,14.7,20.7,10c7-3.7,8.8-12.8,5.6-19.7 c-4.2-9-14-8.3-21.3-3.8c-1.6,1,0.1,3.4,1.8,2.4c5.8-3.6,13.1-4.5,16.7,2.4c2.6,5,1.5,11.6-3,15.2c-6.5,5.1-16.2,2.2-17.5-6.1 c-1.1-7.3,3.9-15.7,11.9-14.8C384.3,198.2,384.8,195.2,382.9,195L382.9,195z"/></g><g><path fill="#95C4D3" d="M389.6,220.3c8,6.3,14.6,14.1,22.2,20.8c1.5,1.3,3.3-1.1,1.9-2.3c-7.6-6.7-14.2-14.5-22.2-20.8 C390,216.8,388.1,219.1,389.6,220.3L389.6,220.3z"/></g><g><path fill="#95C4D3" d="M359.9,232.5c0.3,2.6-0.6,5.1-2.3,7c-1.3,1.5,1.1,3.3,2.3,1.9c2.2-2.5,3.3-5.9,2.9-9.2 C362.7,230.3,359.7,230.6,359.9,232.5L359.9,232.5z"/></g><g><path fill="#95C4D3" d="M374.5,206.3c-1.3,3.1-0.9,6.3,0.9,9.1c1.1,1.6,3.5-0.2,2.4-1.8c-1.2-1.9-1.4-4-0.6-6.1 C378,205.7,375.3,204.5,374.5,206.3L374.5,206.3z"/></g></g><g><g><path fill-rule="evenodd" clip-rule="evenodd" fill="#95C4D3" stroke="#95C4D3" stroke-miterlimit="10" d="M372.6,89.8 c-0.4-0.2-0.3-0.6-0.8-0.7c-8,2.3-18.4,10.1-22.2,20.5c-0.4,1-1.6,2.4-0.3,3.9c4.6-10.4,10.5-17.4,18.1-21.2 C369.1,91.4,371.3,91.7,372.6,89.8z"/><path fill-rule="evenodd" clip-rule="evenodd" fill="#95C4D3" stroke="#95C4D3" stroke-miterlimit="10" d="M396.2,99.8 c0.9,1.5,1.6,3.1,2,4.6c0.2-0.6,0.4-1.2,0.6-1.8c-0.3-1-0.7-2-1.2-2.9C397.1,99.7,396.7,99.7,396.2,99.8z"/><path fill-rule="evenodd" clip-rule="evenodd" fill="#95C4D3" stroke="#95C4D3" stroke-miterlimit="10" d="M349.6,94.8 c9.4-8.1,23-11.9,36-5.4c3.1,1.6,6.3,4.4,8.8,7.7c0.4-0.4,0.7-0.8,1.1-1.2c-2.2-3.1-5.2-5.8-9.1-7.7c-14.1-7-28-2.7-37.6,5.8 C349.1,94.4,349.4,94.6,349.6,94.8z"/><path fill-rule="evenodd" clip-rule="evenodd" fill="#95C4D3" stroke="#95C4D3" stroke-miterlimit="10" d="M356.7,184.3 c3.2-1.1,5.5-5.1,4.2-8.6c1-0.8,1.7-1.7,2.1-2.8c0.2-0.7-0.6-2.1-0.2-3.3c0.3-1.1,1.3-1.2,1.4-2c0.1-0.9-1-2-0.1-2.6 c11.9-11.5,30-18.9,35.1-42.1c1.3-5.7,1.5-11.4,0.6-16.6c-0.3,0.4-0.6,0.7-0.9,1c1.2,8.7-1.2,22.4-7,30.9 c-7.5,11-20,16-28.7,26.4c-1.3-0.5-2.5-0.9-3.8-1.4c7.8-11.8,14.8-25.4,22.9-36.4c3.4-0.2,8.6-4,6.2-8.2 c-3.8-0.7-4.9,4.2-7.4,6.4c-2.7-0.8-3.9-2.2-4.3-4.1c1.6-2.1,3.9-5.1,1.1-6.1c-2.7-0.9-3.3,3.4-3.4,5.3 c-1.6,2.2-6.1,1.5-7.6-0.9c1-2.2,3.9-4.6,3-7.2c-4.9-2.6-6,4-5,6.8c-1.4,0.6-3.4,2.3-4.8,1.2c1-3.8,2.3-9-0.7-10 c-4,2-4.7,10.1-1.1,11.9c-2.8,13.1-4.7,25.9-6.8,38.7c-6.5-0.8-6.5-4.5-8.4-9.6c-4.8-12.3-10.6-26.4-3-43.6 c0.7-1.7,1.6-3.3,2.6-4.8c-0.3-0.2-0.6-0.5-0.8-0.7c-0.8,1.2-1.5,2.3-2.2,3.6c-11.2,20.8,0.2,38.5,5.2,53.5 c-0.8,0.7-2,0.7-2.3,2.4c1.2,3.7-4.1,7.2-1.5,11c-3.1,1.3-1.9,4.8-2.4,6.7c-0.6,2.2-3,3.8-1.8,5.9c0,1.3,2.2,1.6,3,2.5 c-4,9.1,8.5,13.4,11,3.6C354.9,192.7,357.6,187.5,356.7,184.3z M359.5,111c1.3,2.3-0.3,6-0.3,8.9 C356.1,119.5,357.1,113.2,359.5,111z M387.2,120c1.1,2.3-1.9,4.8-3.6,4.8C383.7,123.1,385.9,120.9,387.2,120z M377.1,116 c1.5,0.8-0.1,1.6-0.6,2.7C375.9,118.2,377.1,116.8,377.1,116z M368.9,113c-0.5,1.9-1.5,2.9-2.3,4.2 C365.1,116.1,366.4,111.7,368.9,113z M360,122.4c1.7-1.2,4.1-1,5.6-2.6c1.7,2.9,7.2,4.3,9.4,2c1.5,1.7,2,3.8,5.6,4.5 c-7.8,11.6-15,24.6-22.6,36.5c-1.7-0.6-3.4-1.2-5.1-1.9C355.2,148.2,356.3,135.9,360,122.4z M343.8,162.3c0.2-3,3.6-2.2,5.6-1.6 c3.7,1.2,10.2,4.3,13.5,5.6c0.2,1.5-0.8,2.1-1.5,3.1C357.8,166.2,343.5,166.4,343.8,162.3z M341.9,170.3c-0.7-1.9,1-4.8,2.6-5.2 c6,2.5,12.6,2.8,17.5,6.4c-0.6,2.4-1.9,3.1-3.2,3.9C353.4,174,347.4,171.6,341.9,170.3z M340.3,178.8c-1-2.4,1.2-5.6,2.9-6.9 c5.6,1.4,11.6,4,16.3,4.8c0.3,1.4,0.7,2,0.2,3.3C357.3,186.5,346.9,179.9,340.3,178.8z M347.3,194.1c-0.7,0.7-1.7,1.2-2.7,1.1 c-0.8-0.1-1.6-0.6-2.2-1.2c-1.5-1.3-1.9-3.6-0.7-5.2c0,0,0,0,0,0c0,0,0.1-0.1,0.1-0.1c0.1,0,0.1,0,0.2,0.1 c2.1,1.5,4.4,2.5,7,2.9C348.5,192.5,348.1,193.4,347.3,194.1z M353.2,189.9c-4.1-0.2-10.5-3.2-14.3-4.4c-1-1.6-0.8-4,0.9-5.4 c4.8,1.2,11.2,2.8,15.7,5.3C355.8,187.3,354.4,189.1,353.2,189.9z"/></g><path fill-rule="evenodd" clip-rule="evenodd" fill="none" stroke="#95C4D3" stroke-width="2" stroke-miterlimit="10" d="M341.6,103.7c1.1-1.7,1.5-3.2,2.9-4.7c0.9-1,1.8-2,2.8-3c0.9-1,3.8-2.9,4.9-3.7"/><path fill-rule="evenodd" clip-rule="evenodd" fill="none" stroke="#95C4D3" stroke-width="2.5" stroke-miterlimit="10" d="M393.3,94.6c1.2,1,1.9,2.3,2.7,3.6c0.6,1,1.4,2.1,1.8,3.2c0.3,1,0.7,2.1,1,3.1c0.6,2.3,0.6,4.7,0.8,7.1"/></g><g><g><path fill="#95C4D3" stroke="#FFFFFF" stroke-width="2" stroke-miterlimit="10" d="M191.7,130.4c-0.6-0.1-1.1-0.5-1.4-0.9 c-5.2-6.6-5.2-13.6,0-20.5c0.1-0.2,0.3-0.3,0.5-0.5c12-9.5,18.9-21.2,20.6-35c1.9-13.7-0.9-24-8.6-31.7 c-7.6-7.9-16.6-11.7-27.4-11.7c-10.9,0-19.9,3.8-27.4,11.7c-7.6,7.6-11,18.1-10.1,31.3c0.8,13.2,7.3,24.8,19.4,34.6 c0.2,0.2,0.4,0.4,0.6,0.7c4,6.6,4,13.4,0,20c-0.3,0.6-0.9,1-1.6,1.2c-8.2,2.2-16.5,4.9-23.7,9.4c-5.7,3.6-8.6,7.9-12.1,13.4 c-0.6,1-1.4,1.9-2.5,2.2c-1.1,0.4-2.5,0-3-1c-0.4-0.8-0.1-1.8,0.2-2.6c6.1-15.5,23.9-22.1,38.7-26.1c2.4-4.5,2.3-8.9-0.3-13.4 c-13.1-10.7-20.1-23.5-20.9-38c-1-14.7,2.9-26.6,11.6-35.2c8.4-8.8,18.9-13.3,31.1-13.3c12.1,0,22.5,4.5,31.1,13.3 c8.8,8.8,12.1,20.9,10,36c-1.8,15-9.3,27.9-22.3,38.2c-3.4,4.6-3.5,8.8-0.4,13.2c7.8,1.9,15.8,4.7,22.8,8.8 c7.7,4.5,14.3,8.5,20.7,13.6c1.7,1.3,4.6,2.7,5.5,4.9c0.6,1.5-0.7,3.3-2.3,3.2c-1.5-0.1-3.5-2.4-4.8-3.3 c-4.1-2.8-8.1-5.7-12.2-8.5C213.9,137.4,203.1,133.1,191.7,130.4z"/></g></g><g><path fill="none" stroke="#95C4D3" stroke-width="2.373" stroke-miterlimit="10" d="M313.9,68.8c-7.4-6.3-14.6-12.9-21.5-19.9 c3.8-2.5,11.1-3.4,15.3-5.7c-2.7-6.5-8.1-11.2-10-17.5c7.1-1.7,13.5-2.6,20-3.4c5.3,9.6,10.9,20.6,14.9,30.6 c-4,1.3-11.4,2.4-15.5,3.7c4.7,6.2,9.9,13.5,12.9,20.9c-2,1.4-5.6,0.3-7.5,1.5c2.8,6.5,8.1,13.4,8.9,20.1 c-5.9-3.4-10.3-8.6-15.4-13.1c-2.5-2.2-4.9-4.5-7.4-6.8c-2.5-2.2-5.5-4.4-6.8-7.2C304.6,70,309.7,70.3,313.9,68.8z"/></g><g><path fill="none" stroke="#95C4D3" stroke-width="2.373" stroke-miterlimit="10" d="M288.1,128.2c-9.6-1.2-19.3-2.9-28.9-5.1 c1.8-4.2,7.5-8.8,9.8-13.1c-5.8-4-12.9-5.1-17.9-9.3c5-5.2,10-9.5,15-13.7c9.6,5.2,20.3,11.4,29.1,17.7c-2.7,3.2-8.3,8.2-11,11.5 c7.3,2.7,15.7,5.9,22.1,10.5c-0.9,2.3-4.6,3.3-5.5,5.3c5.9,4,14,6.9,18.4,12c-6.8,0.4-13.3-1.7-20.1-2.6 c-3.3-0.5-6.6-1.2-9.9-1.7c-3.3-0.5-7-0.7-9.7-2.3C280.9,134.3,285.4,131.7,288.1,128.2z"/></g><path fill="#95C4D3" stroke="#95C4D3" stroke-width=".18" d="M372.6,62.8c3,0.1,6.2-1.1,8.7-2.8c2.5-1.6,4-4.1,4.1-7.1 c0.2-5.8-3.3-11.1-9.4-11.2c-6.7-0.1-10.9,4.5-12.5,10.4c-1.1,3.9,1.7,8,5.2,9.7C370,62.5,371.3,62.8,372.6,62.8z M368,48.9 c1.8-3.1,7-4.7,10.3-3.7c3,1,4.3,4.7,4.1,7.7c-0.2,2.3-2,3.5-3.8,4.6c-2.2,1.3-4.3,1.8-6.8,1.3c-2.5-0.5-3.5-0.8-4.9-3 C365.7,53.9,367,50.6,368,48.9z"/><path fill="#95C4D3" stroke="#95C4D3" stroke-width=".18" d="M402.9,45.2c2.1,0,4.2-0.8,5.9-1.9c1.7-1.1,2.8-2.8,2.8-4.8 c0.1-4-2.3-7.5-6.4-7.6c-4.6-0.1-7.4,3.1-8.5,7.1c-0.7,2.7,1.1,5.5,3.5,6.6C401.1,44.9,402,45.1,402.9,45.2z M399.7,35.6 c1.2-2.1,4.8-3.2,7-2.5c2.1,0.7,3,3.2,2.8,5.2c-0.1,1.5-1.4,2.4-2.6,3.1c-1.5,0.9-3,1.2-4.6,0.9c-1.7-0.3-2.4-0.5-3.4-2.1 C398.1,39.1,399,36.8,399.7,35.6z"/><g><g><g><g><g><path fill="#95C4D3" stroke="#95C4D3" stroke-width=".75" stroke-miterlimit="10" d="M34.5,33.7c3.9,4.6,9.8,6.5,15.7,6.1 c6-0.4,11-3.7,14.2-8.7c3-4.9,4.1-11.3,2.7-16.8c-1.4-5.4-5.5-9.5-10.2-12.2c-0.7-0.4-1.4,0.8-0.6,1.2 c4.3,2.5,7.8,6.1,9.4,10.9c1.6,5,0.4,10.7-1.8,15.2c-5.2,10.6-20.8,12.5-28.4,3.4C34.9,32.1,34,33.1,34.5,33.7L34.5,33.7z"/></g><g><path fill="#95C4D3" stroke="#95C4D3" stroke-width=".75" stroke-miterlimit="10" d="M56.9,2.1c-6.8-3.3-15.1-1.5-20.7,3.3 c-6.7,5.7-7.9,14.5-4.6,22.4c0.3,0.8,1.6,0.4,1.3-0.4c-2.9-7-2.3-14.7,3.2-20.1C41.2,2.1,49.7,0,56.2,3.2 C57,3.6,57.6,2.4,56.9,2.1L56.9,2.1z"/></g><g><path fill="#95C4D3" stroke="#95C4D3" stroke-width=".75" stroke-miterlimit="10" d="M31.8,27c-3.7,2.6-7.2,5.5-11.4,7.2 c-0.8,0.3-0.4,1.6,0.4,1.3c4.3-1.8,7.9-4.7,11.7-7.4C33.2,27.6,32.5,26.5,31.8,27L31.8,27z"/></g><g><path fill="#95C4D3" stroke="#95C4D3" stroke-width=".75" stroke-miterlimit="10" d="M20,36.2c5.1-1.7,10.5-2.1,15.8-2.9 c1-0.2,0.9-1.7-0.1-1.6c-5.4,0.9-10.9,1.2-16.2,3C18.6,35,19,36.5,20,36.2L20,36.2z"/></g></g></g></g><g><path fill="#95C4D3" stroke="#96C4D3" stroke-miterlimit="10" d="M41.8,12.1c0-0.1,0.1-0.2,0.1-0.3c0.3-0.6,0.6-1.4,1.2-2.1 c0.6-1.1,2.2-2,4.2-2.2c0,0,1.4,0,1.9,0.1c0.9,0.2,1.3,0.4,1.7,0.6c1,0.7,1.4,0.9,1.9,1.9l0.4,0.5c0,0.2,0.1,0.3,0.2,0.3 c0.4,0.4,0.5,1.1,0.6,1.4c0,0.1,0.1,0.2,0.1,0.3c0.1,0.4,0.3,0.7,0.3,0.8c0.3,0.7,0.6,1.4,0.7,2.2c0.2,1.2,0.2,2.2,0.2,3.3v0.7 c0,0.9-0.1,1.9-0.2,2.8c-0.1,1.6-0.5,3.3-1,4.8l-0.3,0.5l-0.4,0.6c0.2,0.3,1,0.9,2.5,1.8c0.4,0.3,0.6,0.7-0.1,1.1 c-0.6,0.4-1.4,0.1-1.9-0.2c-0.7-0.4-1.4-0.8-1.9-1.2l-0.9,0.5l-0.3,0.2c-1,0.5-2.4,0.7-3.6,0.4h0.1c-0.6-0.1-0.7-0.2-1-0.3 l-0.4-0.1l-0.5-0.3l0.1,0c-1.1-0.5-1.6-1.2-1.9-1.7c0,0-0.3-0.4-0.4-0.6l-0.2-0.3c-0.4-0.8-0.6-1.6-0.9-2.5l-0.1-0.5l-0.2-0.8 c-0.1-0.2-0.1-0.6-0.1-0.8c-0.2-1.2-0.4-2.6-0.4-3.8c0-1.1,0.1-2.3,0.2-3.5v-0.9C41.4,13.9,41.4,12.9,41.8,12.1L41.8,12.1z M49.3,25.8c0.9-0.3,1.4,0.4,1.4,0.4l0.7,0.6c0.4-1,0.5-2.2,0.7-3c0.2-1.3,0.3-2.9,0.3-4.2v-0.4c-0.1-2.2-0.2-4.2-1-6.4 l-0.2-0.3v0c-0.2-0.2-0.2-0.3-0.2-0.5c-0.2-0.4-0.3-0.5-0.3-0.6c-0.2-0.6-0.3-1.1-1.3-1.8c-0.3-0.2-1.2-0.5-1.7-0.7 c-0.5,0.1-0.9,0.2-1.2,0.5c-0.2,0.1-0.4,0.2-0.5,0.3c0,0-0.1,0.1-0.2,0.1c-0.1,0.3-0.4,0.4-0.7,0.6c-0.1,0.1-0.2,0.2-0.3,0.4 l-0.4,0.8v0.2C44,13.4,44,14.9,44,16.5V18c-0.1,0.8-0.1,1.2,0,1.5v0c0.1,0.2,0.1,0.4,0.1,0.8c0,0.2,0.1,0.5,0.1,0.8 c0.1,1,0.2,2.1,0.5,3.2c0.2,1.8,1.1,4.3,2.6,5.1c0,0,0.2,0.3,0.7,0.3c0.6-0.1,1.1-0.2,1.4-0.3l0.3-0.2c0.5-0.4,0.5-0.3,0.7-0.6 c-0.1-0.1-0.1-0.1-0.2-0.2L49.7,28c-0.1,0-0.2-0.1-0.3-0.2c-0.1-0.1-0.2-0.2-0.3-0.3c-0.4-0.3-0.4-0.3-0.7-0.9 C48.4,26.6,48.2,25.9,49.3,25.8z"/></g></g><g><path fill="#FFFFFF" d="M99.3,83.7c5.4,4,11,7.6,16.3,11.7c-2.9-4.8-5.3-9.9-7.9-14.9c0-0.1-0.1-0.1-0.1-0.2 c-0.3-0.4-0.3-1,0.2-1.4c10.9-9.1,16.5-22.4,12-36.4c-4.1-12.9-16.5-23.6-30.2-23.9c-9.4,0.4-18.3,3.4-25.1,10.1 c-7,6.9-9.9,17.4-10.1,26.9c-0.3,21.7,22.9,38,43.2,30.5C96.5,85,97.9,82.6,99.3,83.7z"/><g><g><path fill="#96C4D3" d="M123.7,102.6c-0.3-0.3-0.5-0.5-0.8-0.8c0-0.2-0.1-0.5-0.3-0.7c-5.3-6.3-8.6-13.8-12.3-21 c11.8-10.3,17.1-25.7,11-40.6c-5.2-12.8-17.6-23-31.7-23.4C79.5,16.6,69,19.9,62.1,27.7c-7.1,8-10.8,19.6-10,30.3 c0.8,11.2,6.3,21,16.1,26.8c9.5,5.7,21,7.7,31.4,3.3c0.2-0.1,0.3-0.2,0.5-0.3c7.5,5.4,15.3,10.3,21.7,16.9 C123,106.1,125.1,104,123.7,102.6z M54.5,55.6c0.2-9.5,3.1-20.1,10.1-26.9c6.8-6.7,15.7-9.6,25.1-10.1 c13.7,0.3,26.1,11.1,30.2,23.9c4.5,13.9-1.1,27.2-12,36.4c-0.5,0.4-0.5,1-0.2,1.4c0,0.1,0,0.1,0.1,0.2c2.6,5,5,10.1,7.9,14.9 c-5.3-4.1-10.9-7.7-16.3-11.7c-1.5-1.1-2.9,1.2-1.6,2.4C77.4,93.7,54.1,77.3,54.5,55.6z"/></g><g><path fill="#95C4D3" stroke="#FFFFFF" stroke-width=".5" stroke-miterlimit="10" d="M94,41.6c0.1,0.7,0.3,1.7,0.6,2.7l1.2,3.5 l1.1,4.2c0.5,1.5,1.2,2.9,1.7,4.5l0.4,1.8l1.3,3.5l1.2,3.6c0.9,2.9,1.6,4.9,1.8,6.2c0.1,0.2,0,0.3,0.1,0.5 c0.2,0.8-0.9,1.3-2.3,1.3c-0.5,0-1.7,0.2-2.4-0.8L97,68.8l-1.2-4.4l-0.5-1.8c-0.1-0.1-0.2-0.4-0.2-0.5l-1.5-4.3L93,56 c-2,0-3.9,0.1-5.9,0.1c-0.8,0-1.6,0.1-2.5,0.1c-0.6,0.1-1.7,0.1-2.4,0.1l-0.4,1.6l-0.9,2.6l-0.3,1.2c-0.2,0.8-0.4,1.6-0.7,2.1 c0,0.2-0.1,0.5-0.1,0.6l-0.3,0.9l-0.6,2.5c-0.3,1-0.5,1.8-0.5,1.8l-0.3,1.2v0.3c-0.5,2.1-0.4,2.4-2.7,2.4 c-1.3,0-2.7-0.2-2.3-1.4c0.1-0.2,0-0.7,0.1-1.1c0.5-3.3,1.3-5.6,2.4-8.6l0.6-3l0.8-2.4c0.2-0.8,0.3-1.5,0.4-2 c0.2-1,0.4-2.1,0.7-3.1c0.4-1.5,1.1-3,1.4-4.5l1.3-4.1v0.1c0.1-0.7,0.3-1,0.5-1.4c0.2-0.5,0.5-0.6,0.5-1.7l0.7-1.9v0.1 c0.1-0.4,0.4-0.8,0.5-1.2l0.7-2c0.1-0.6,0.2-1.4,0.7-2.6c0.1-1.3,0.8-3.3,3.2-3.8c0.9-0.1,3,0.1,3.3,1.9 c0.3,0.8,0.6,1.5,0.6,1.5l0.9,3.1l0.9,3.2C93.7,39.7,93.8,40.7,94,41.6z M90.8,48.7l-0.2-0.9c-0.3-1.1-0.5-2.3-0.8-3.4 c-0.3-1.4-0.7-3-1.3-4.4l-0.7-3.2l-0.2,0.6L87,39.1l-2.1,6.6c-0.3,1.5-0.7,2.8-1.3,4.4l-0.8,3.3c0.7,0,1.5,0.1,2.2,0.1 c1.2,0,2.5-0.1,3.9-0.1c1.5-0.1,1.7-0.2,3.4-0.2L90.8,48.7z"/></g></g></g><g><g><path fill="none" stroke="#95C4D3" stroke-width="3" stroke-linecap="round" stroke-linejoin="round" stroke-miterlimit="10" d="M108.2,155.6c4.8,26.3,7,61.8,6.9,88.6c-23.2,2.9-46.6,4.5-70,4.8c-0.8,0-1.7,0-2.4-0.5c-0.8-0.6-1.1-1.7-1.3-2.6 c-1-4.1-2.3-17.3-3-21.5c-2.2-13.9-2.9-28-4.3-42c-0.7-7-1.3-13.9-2.2-20.9c-0.2-3.2-0.9-6.5-1.4-9.6c-0.5-3.5-1.6-7.2-1.8-10.7 c1.7-0.1,3.4-0.4,5.1-0.6c13.2-1.5,26.4-1.6,39.5-3.5c5.6-0.8,11.3-1.6,16.9-0.6L108.2,155.6z"/><path fill="none" stroke="#95C4D3" stroke-width="3" stroke-linecap="round" stroke-linejoin="round" stroke-miterlimit="10" d="M90.8,136.8c0.8,1.5,2.1,2.7,2.6,4.4c1.1,3.5,1.7,7.1,1.7,10.8c0,2.9-1.2,6.5-0.4,9.4c2.4-0.4,4.9-0.7,7.3-1.1 c2.9-0.5,5-1.3,6.3-4.1"/></g><path fill="none" stroke="#95C4D3" stroke-width="2.337" stroke-linecap="round" stroke-linejoin="round" stroke-miterlimit="10" d="M41.1,153.9c15.9-1.1,31.8-2.1,47.7-3.2"/><path fill="none" stroke="#95C4D3" stroke-width="2.337" stroke-linecap="round" stroke-linejoin="round" stroke-miterlimit="10" d="M43.3,172.9c19.2-1.3,38.4-2.5,57.6-3.8"/><path fill="none" stroke="#95C4D3" stroke-width="2.337" stroke-linecap="round" stroke-linejoin="round" stroke-miterlimit="10" d="M44.5,191.3c19.2-1.3,38.4-2.5,57.6-3.8"/><path fill="none" stroke="#95C4D3" stroke-width="2.337" stroke-linecap="round" stroke-linejoin="round" stroke-miterlimit="10" d="M45.8,210.9c19.2-1.3,38.4-2.5,57.6-3.8"/><path fill="none" stroke="#95C4D3" stroke-width="2.337" stroke-linecap="round" stroke-linejoin="round" stroke-miterlimit="10" d="M48.1,230.4c19.2-1.3,38.4-2.5,57.6-3.8"/></g><path fill="none" stroke="#95C4D3" stroke-width="3" stroke-linecap="round" stroke-linejoin="round" stroke-miterlimit="10" d="M196.2,93.7c4.4,0-3.7,0,0.7,0c5.9,0,12.8-0.5,16.2-6.5c3.7-6.5,1.1-15.4,2-23.2c0,0,3.3-41.5-39.4-41.8s-41.4,39.1-41.2,46"/><ellipse fill="none" stroke="#95C4D3" stroke-width="3" stroke-linecap="round" stroke-linejoin="round" stroke-miterlimit="10" cx="188.1" cy="94.1" rx="7" ry="5"/><path fill-rule="evenodd" clip-rule="evenodd" fill="none" stroke="#95C4D3" stroke-width="2" stroke-linecap="round" stroke-linejoin="round" stroke-miterlimit="10" d="M128.9,254.7c2.2,0.3,5.4,0.5,7.6,0.7c0.7-1.8,1.1-4.2,1.7-6.3c0,0,0.1-0.1,0.2,0c0.5,1.7,1.4,3.8,2.2,5.7 c0.2,0.5,0.6,1.6,0.9,1.8c0.3,0.2,1.2,0.3,1.7,0.4c1.6,0.4,2.9,0.7,4.3,1.1c-1.2,0.7-3.8,1.6-5.2,2.4c1,2.3,1.7,3.8,2.2,6.4 c-2.2-1.8-3.2-2.7-5.5-4.4c-1.5,0.7-4.6,3.3-5.9,4.2c0-1.8,1.5-5.4,1.4-7.3c-0.5-0.5-1.1-0.9-1.5-1.4c0,0-0.1,0-0.1-0.1 c0,0,0,0,0,0c0,0-0.1,0-0.1-0.1c0,0,0,0-0.1-0.1c-0.1-0.1-0.1-0.1-0.2-0.2c0,0-0.1,0-0.1-0.1c0,0-0.1,0-0.2,0 C131.3,256.6,129.8,255.8,128.9,254.7z"/><path fill-rule="evenodd" clip-rule="evenodd" fill="none" stroke="#95C4D3" stroke-width="2" stroke-linecap="round" stroke-linejoin="round" stroke-miterlimit="10" d="M1,157.8c2.8-0.4,6.6-1.2,9.3-1.6c0.3-2.5,0-5.4,0-8.1c0-0.1,0.1-0.1,0.2-0.1c1.2,1.8,2.9,4.1,4.5,6.1c0.4,0.5,1.2,1.7,1.6,1.9 c0.5,0.2,1.5,0,2.1,0c2-0.1,3.7-0.1,5.5-0.1c-1.2,1.2-4.1,3.1-5.4,4.6c1.9,2.5,3.3,4,4.7,6.9c-3.3-1.4-4.7-2.1-8-3.5 c-1.5,1.4-4.4,5.4-5.7,7c-0.7-2.2,0-7-0.7-9.2c-0.7-0.4-1.6-0.7-2.2-1.1c0,0-0.1,0-0.1,0c0,0,0,0-0.1,0c0,0-0.1,0-0.1-0.1 c0,0-0.1,0-0.1-0.1c-0.1-0.1-0.2-0.1-0.3-0.2c0,0-0.1,0-0.1,0c-0.1,0-0.1,0.1-0.3,0C4.5,159.1,2.5,158.7,1,157.8z"/><g><path fill-rule="evenodd" clip-rule="evenodd" fill="none" stroke="#95C4D3" stroke-width="2" stroke-linecap="round" stroke-linejoin="round" stroke-miterlimit="10" d="M185.2,248.4c-0.2,0-0.3-0.1-0.3-0.2c-0.1,0-0.1,0-0.2,0c-0.1,0-0.3,0.1-0.4,0.1c0,0-0.1,0-0.1,0c-0.1,0-0.1,0-0.2,0 c0,0-0.1,0-0.1,0c-0.1,0-0.1,0-0.2,0c-0.9,0.3-2,0.2-2.9,0.4c-1.6,2.5-2.8,5.8-4.5,8.3c-0.8-2.6-1.2-5.5-2.3-7.9 c-4.3,0-8.1,1-12.3,1.2c2.8-3,5.7-5.6,8.9-7.8c-0.9-2.5-2.9-4.9-3.8-7.1c2,0.9,3.9,1.8,6.1,2.9c0.7,0.3,1.8,1,2.4,1.1 c0.5,0,2-1.1,2.6-1.6c2.5-1.8,5.4-3.8,7.5-5.6c0.1,0,0.2,0.1,0.2,0.2c-1.1,3.4-2.7,7.1-3.4,10.3c2.8,1.9,6.4,3.4,9.4,5.3 C189.7,248.4,187.2,248,185.2,248.4z"/><path fill-rule="evenodd" clip-rule="evenodd" fill="none" stroke="#95C4D3" stroke-width="2" stroke-linecap="round" stroke-linejoin="round" stroke-miterlimit="10" d="M162.9,250.1c-1.6-1.5-3.2-3.1-4.8-4.6c-2.1-2.1-4.3-4.1-6.5-6c-5-4.3-10.7-7.8-16.8-10.3"/><path fill-rule="evenodd" clip-rule="evenodd" fill="none" stroke="#95C4D3" stroke-width="2" stroke-linecap="round" stroke-linejoin="round" stroke-miterlimit="10" d="M166.6,235.4c-11.9-6.2-24.3-11.1-37.2-14.8"/><path fill-rule="evenodd" clip-rule="evenodd" fill="none" stroke="#95C4D3" stroke-width="2" stroke-linecap="round" stroke-linejoin="round" stroke-miterlimit="10" d="M185,231.6c-20.8-6.9-41.9-13-63.2-18.2"/></g></g></g></svg>
